<svg width="202" height="202" viewBox="0 0 202 202" fill="none" xmlns="http://www.w3.org/2000/svg">
<g clip-path="url(#clip0_10_21905)">
<path d="M40.4002 6.73332V77.4333H6.73356C5.84066 77.4333 4.98434 77.0786 4.35297 76.4473C3.72159 75.8159 3.36689 74.9595 3.36689 74.0667V20.2C3.29927 17.9711 3.68844 15.7519 4.51046 13.679C5.33248 11.6061 6.56996 9.72332 8.14676 8.14652C9.72357 6.56972 11.6063 5.33223 13.6792 4.51021C15.7521 3.68819 17.9713 3.29902 20.2002 3.36665H23.5669L40.4002 6.73332Z" fill="#D5D8DB"/>
<g filter="url(#filter0_d_10_21905)">
<path d="M164.967 20.1999V112.278L113.12 168.03L102.818 174.528C102.281 174.874 101.656 175.058 101.017 175.058C100.378 175.058 99.7528 174.874 99.2159 174.528L86.8602 166.717C86.3233 166.371 85.698 166.187 85.0591 166.187C84.4201 166.187 83.7948 166.371 83.2579 166.717L70.8349 174.562C70.2983 174.892 69.6806 175.067 69.0506 175.067C68.4205 175.067 67.8028 174.892 67.2662 174.562L54.8432 166.717C54.3063 166.371 53.681 166.187 53.0421 166.187C52.4031 166.187 51.7778 166.371 51.2409 166.717L42.1846 172.407C41.6786 172.733 41.0938 172.917 40.492 172.939C39.8902 172.96 39.2938 172.818 38.7659 172.529C38.2381 172.239 37.7984 171.812 37.4934 171.292C37.1885 170.773 37.0296 170.181 37.0336 169.579V20.9069C37.102 16.6349 35.5898 12.4882 32.7873 9.26313C29.9848 6.0381 26.0897 3.96212 21.8499 3.43389C21.3131 3.37786 20.7734 3.35537 20.2339 3.36656H148.134C152.598 3.36656 156.88 5.14006 160.037 8.29693C163.193 11.4538 164.967 15.7354 164.967 20.1999Z" fill="#F3F3F3"/>
</g>
<path d="M154.867 198.633C179.038 198.633 198.633 179.038 198.633 154.867C198.633 130.695 179.038 111.1 154.867 111.1C130.695 111.1 111.1 130.695 111.1 154.867C111.1 179.038 130.695 198.633 154.867 198.633Z" fill="#7B61FF"/>
<path d="M148.133 74.0666H53.8667C52.9738 74.0666 52.1174 73.7119 51.4861 73.0805C50.8547 72.4491 50.5 71.5928 50.5 70.6999C50.5 69.807 50.8547 68.9507 51.4861 68.3193C52.1174 67.688 52.9738 67.3333 53.8667 67.3333H148.133C149.026 67.3333 149.883 67.688 150.514 68.3193C151.145 68.9507 151.5 69.807 151.5 70.6999C151.5 71.5928 151.145 72.4491 150.514 73.0805C149.883 73.7119 149.026 74.0666 148.133 74.0666Z" fill="#505068"/>
<path d="M101 141.4H53.8667C52.9738 141.4 52.1174 141.045 51.4861 140.414C50.8547 139.783 50.5 138.926 50.5 138.033C50.5 137.141 50.8547 136.284 51.4861 135.653C52.1174 135.021 52.9738 134.667 53.8667 134.667H101C101.893 134.667 102.749 135.021 103.381 135.653C104.012 136.284 104.367 137.141 104.367 138.033C104.367 138.926 104.012 139.783 103.381 140.414C102.749 141.045 101.893 141.4 101 141.4Z" fill="#505068"/>
<path d="M63.9667 90.9001H53.8667C52.9738 90.9001 52.1174 90.5454 51.4861 89.914C50.8547 89.2826 50.5 88.4263 50.5 87.5334C50.5 86.6405 50.8547 85.7842 51.4861 85.1528C52.1174 84.5214 52.9738 84.1667 53.8667 84.1667H63.9667C64.8596 84.1667 65.7159 84.5214 66.3473 85.1528C66.9786 85.7842 67.3333 86.6405 67.3333 87.5334C67.3333 88.4263 66.9786 89.2826 66.3473 89.914C65.7159 90.5454 64.8596 90.9001 63.9667 90.9001Z" fill="#B5B8BC"/>
<path d="M134.667 90.9001H77.4336C76.5407 90.9001 75.6843 90.5454 75.053 89.914C74.4216 89.2826 74.0669 88.4263 74.0669 87.5334C74.0669 86.6405 74.4216 85.7842 75.053 85.1528C75.6843 84.5214 76.5407 84.1667 77.4336 84.1667H134.667C135.56 84.1667 136.416 84.5214 137.047 85.1528C137.679 85.7842 138.034 86.6405 138.034 87.5334C138.034 88.4263 137.679 89.2826 137.047 89.914C136.416 90.5454 135.56 90.9001 134.667 90.9001Z" fill="#B5B8BC"/>
<path d="M63.9667 107.733H53.8667C52.9738 107.733 52.1174 107.379 51.4861 106.747C50.8547 106.116 50.5 105.26 50.5 104.367C50.5 103.474 50.8547 102.617 51.4861 101.986C52.1174 101.355 52.9738 101 53.8667 101H63.9667C64.8596 101 65.7159 101.355 66.3473 101.986C66.9786 102.617 67.3333 103.474 67.3333 104.367C67.3333 105.26 66.9786 106.116 66.3473 106.747C65.7159 107.379 64.8596 107.733 63.9667 107.733Z" fill="#B5B8BC"/>
<path d="M131.3 107.733H77.4336C76.5407 107.733 75.6843 107.379 75.053 106.747C74.4216 106.116 74.0669 105.26 74.0669 104.367C74.0669 103.474 74.4216 102.617 75.053 101.986C75.6843 101.355 76.5407 101 77.4336 101H131.3C132.193 101 133.049 101.355 133.681 101.986C134.312 102.617 134.667 103.474 134.667 104.367C134.667 105.26 134.312 106.116 133.681 106.747C133.049 107.379 132.193 107.733 131.3 107.733Z" fill="#B5B8BC"/>
<path d="M63.9667 124.567H53.8667C52.9738 124.567 52.1174 124.212 51.4861 123.581C50.8547 122.949 50.5 122.093 50.5 121.2C50.5 120.307 50.8547 119.451 51.4861 118.82C52.1174 118.188 52.9738 117.833 53.8667 117.833H63.9667C64.8596 117.833 65.7159 118.188 66.3473 118.82C66.9786 119.451 67.3333 120.307 67.3333 121.2C67.3333 122.093 66.9786 122.949 66.3473 123.581C65.7159 124.212 64.8596 124.567 63.9667 124.567Z" fill="#B5B8BC"/>
<path d="M111.1 124.567H77.4336C76.5407 124.567 75.6843 124.212 75.053 123.581C74.4216 122.949 74.0669 122.093 74.0669 121.2C74.0669 120.307 74.4216 119.451 75.053 118.82C75.6843 118.188 76.5407 117.833 77.4336 117.833H111.1C111.993 117.833 112.849 118.188 113.481 118.82C114.112 119.451 114.467 120.307 114.467 121.2C114.467 122.093 114.112 122.949 113.481 123.581C112.849 124.212 111.993 124.567 111.1 124.567Z" fill="#B5B8BC"/>
<path d="M74.0666 43.7666C74.0666 41.0879 73.0025 38.5189 71.1084 36.6248C69.2143 34.7307 66.6453 33.6666 63.9666 33.6666C63.3758 33.666 62.7955 33.51 62.2841 33.2141C61.7727 32.9182 61.3481 32.493 61.0531 31.9811C60.758 31.4692 60.6029 30.8887 60.6033 30.2979C60.6036 29.707 60.7595 29.1267 61.0551 28.6152C61.3508 28.1036 61.7759 27.6789 62.2877 27.3837C62.7994 27.0885 63.3799 26.9331 63.9707 26.9333C64.5616 26.9334 65.142 27.089 65.6536 27.3845C66.1653 27.68 66.5901 28.1049 66.8855 28.6166C67.3461 29.361 68.0784 29.8967 68.9272 30.1103C69.7761 30.3238 70.6748 30.1984 71.4327 29.7605C72.1906 29.3226 72.7482 28.6068 72.9873 27.7648C73.2263 26.9227 73.128 26.0207 72.7132 25.2499C71.4943 23.2004 69.588 21.6496 67.3333 20.8733V20.1999C67.3333 19.307 66.9786 18.4507 66.3472 17.8193C65.7159 17.188 64.8595 16.8333 63.9666 16.8333C63.0737 16.8333 62.2174 17.188 61.586 17.8193C60.9547 18.4507 60.6 19.307 60.6 20.1999V20.8194C58.3555 21.6099 56.4632 23.1694 55.2583 25.2214C54.0534 27.2735 53.6136 29.6857 54.0168 32.031C54.4201 34.3762 55.6403 36.5031 57.4614 38.0348C59.2825 39.5666 61.587 40.4044 63.9666 40.3999C64.5575 40.4005 65.1378 40.5566 65.6492 40.8524C66.1606 41.1483 66.5852 41.5735 66.8802 42.0854C67.1753 42.5973 67.3304 43.1778 67.33 43.7686C67.3297 44.3595 67.1738 44.9398 66.8782 45.4513C66.5825 45.9629 66.1574 46.3876 65.6456 46.6828C65.1338 46.978 64.5534 47.1334 63.9625 47.1332C63.3717 47.1331 62.7913 46.9775 62.2797 46.682C61.768 46.3865 61.3432 45.9616 61.0477 45.4499C60.5872 44.7055 59.8549 44.1698 59.006 43.9562C58.1572 43.7427 57.2585 43.8681 56.5006 44.306C55.7427 44.7439 55.1851 45.4597 54.946 46.3017C54.707 47.1438 54.8052 48.0458 55.22 48.8166C56.4407 50.8673 58.3495 52.4183 60.6067 53.1933V53.8666C60.6067 54.7595 60.9614 55.6158 61.5928 56.2472C62.2242 56.8786 63.0805 57.2333 63.9734 57.2333C64.8663 57.2333 65.7226 56.8786 66.354 56.2472C66.9853 55.6158 67.34 54.7595 67.34 53.8666V53.2471C69.3012 52.5522 71 51.2685 72.204 49.5716C73.408 47.8746 74.0585 45.8473 74.0666 43.7666Z" fill="#7B61FF"/>
<path d="M117.833 40.4001H87.5332C86.6403 40.4001 85.7839 40.0454 85.1526 39.414C84.5212 38.7826 84.1665 37.9263 84.1665 37.0334C84.1665 36.1405 84.5212 35.2842 85.1526 34.6528C85.7839 34.0215 86.6403 33.6667 87.5332 33.6667H117.833C118.726 33.6667 119.582 34.0215 120.214 34.6528C120.845 35.2842 121.2 36.1405 121.2 37.0334C121.2 37.9263 120.845 38.7826 120.214 39.414C119.582 40.0454 118.726 40.4001 117.833 40.4001Z" fill="#B5B8BC"/>
<path d="M148.133 57.2333H87.5332C86.6403 57.2333 85.7839 56.8786 85.1526 56.2473C84.5212 55.6159 84.1665 54.7596 84.1665 53.8667C84.1665 52.9738 84.5212 52.1174 85.1526 51.4861C85.7839 50.8547 86.6403 50.5 87.5332 50.5H148.133C149.026 50.5 149.882 50.8547 150.514 51.4861C151.145 52.1174 151.5 52.9738 151.5 53.8667C151.5 54.7596 151.145 55.6159 150.514 56.2473C149.882 56.8786 149.026 57.2333 148.133 57.2333Z" fill="#B5B8BC"/>
<path d="M148.133 175.067C147.24 175.067 146.384 174.712 145.753 174.08L135.653 163.98C135.04 163.345 134.7 162.495 134.708 161.612C134.716 160.729 135.07 159.885 135.694 159.261C136.318 158.637 137.163 158.283 138.045 158.275C138.928 158.267 139.779 158.607 140.414 159.22L147.675 166.482L168.943 136.104C169.19 135.727 169.51 135.404 169.884 135.153C170.259 134.902 170.68 134.729 171.122 134.644C171.565 134.559 172.02 134.564 172.461 134.658C172.902 134.752 173.319 134.933 173.688 135.192C174.057 135.45 174.371 135.78 174.61 136.162C174.85 136.543 175.01 136.969 175.082 137.414C175.154 137.859 175.135 138.314 175.028 138.752C174.921 139.189 174.727 139.601 174.457 139.962L150.891 173.629C150.609 174.032 150.242 174.368 149.816 174.614C149.391 174.86 148.916 175.01 148.426 175.053C148.329 175.063 148.231 175.067 148.133 175.067Z" fill="white"/>
</g>
<defs>
<filter id="filter0_d_10_21905" x="0.233887" y="-8.63623" width="184.733" height="211.703" filterUnits="userSpaceOnUse" color-interpolation-filters="sRGB">
<feFlood flood-opacity="0" result="BackgroundImageFix"/>
<feColorMatrix in="SourceAlpha" type="matrix" values="0 0 0 0 0 0 0 0 0 0 0 0 0 0 0 0 0 0 127 0" result="hardAlpha"/>
<feOffset dy="8"/>
<feGaussianBlur stdDeviation="10"/>
<feComposite in2="hardAlpha" operator="out"/>
<feColorMatrix type="matrix" values="0 0 0 0 0 0 0 0 0 0 0 0 0 0 0 0 0 0 0.14 0"/>
<feBlend mode="normal" in2="BackgroundImageFix" result="effect1_dropShadow_10_21905"/>
<feBlend mode="normal" in="SourceGraphic" in2="effect1_dropShadow_10_21905" result="shape"/>
</filter>
<clipPath id="clip0_10_21905">
<rect width="202" height="202" fill="white"/>
</clipPath>
</defs>
</svg>
