<svg width="89" height="90" viewBox="0 0 89 90" fill="none" xmlns="http://www.w3.org/2000/svg">
<g id="Group 1">
<path id="INVAE" d="M0.728027 89.4253L35.8593 0.645996H54.1224L89 89.4253H67.1856L50.4444 44.4015C49.768 42.6259 49.0916 40.7235 48.4152 38.6943C47.7388 36.665 47.0623 34.5935 46.3859 32.4797C45.7095 30.2814 45.0331 28.1676 44.3567 26.1383C43.7648 24.0245 43.2575 22.0799 42.8348 20.3043L46.6396 20.1774C46.1323 22.2912 45.5405 24.3628 44.864 26.392C44.2722 28.4212 43.638 30.4505 42.9616 32.4797C42.3697 34.4244 41.6933 36.4114 40.9324 38.4406C40.1714 40.3853 39.4527 42.4145 38.7763 44.5283L22.035 89.4253H0.728027ZM16.5224 89.4254L24.1911 72.0499H45.2128L52.1927 89.4254H16.5224Z" fill="white"/>
</g>
</svg>
