<svg width="25" height="24" viewBox="0 0 25 24" fill="none" xmlns="http://www.w3.org/2000/svg">
<g id="Social icon">
<path id="path4" d="M21.0098 17.1449C20.6771 17.9135 20.2833 18.6211 19.827 19.2715C19.2051 20.1583 18.6958 20.7721 18.3034 21.113C17.695 21.6724 17.0432 21.959 16.3451 21.9753C15.8441 21.9753 15.2398 21.8327 14.5363 21.5434C13.8306 21.2555 13.182 21.113 12.589 21.113C11.967 21.113 11.3 21.2555 10.5865 21.5434C9.87192 21.8327 9.29628 21.9834 8.85615 21.9984C8.18681 22.0269 7.51963 21.7322 6.85368 21.113C6.42863 20.7422 5.89698 20.1067 5.26009 19.2063C4.57675 18.2449 4.01495 17.13 3.57483 15.8589C3.10348 14.486 2.86719 13.1565 2.86719 11.8694C2.86719 10.3951 3.18577 9.12345 3.82389 8.05784C4.32539 7.20191 4.99256 6.52672 5.82759 6.03105C6.66261 5.53539 7.56485 5.2828 8.53649 5.26664C9.06814 5.26664 9.76532 5.43109 10.6317 5.75429C11.4957 6.07858 12.0504 6.24303 12.2936 6.24303C12.4754 6.24303 13.0917 6.05074 14.1364 5.66738C15.1243 5.31186 15.9581 5.16466 16.6412 5.22264C18.4921 5.37202 19.8827 6.10167 20.8075 7.41619C19.1521 8.4192 18.3332 9.82403 18.3495 11.6262C18.3645 13.03 18.8737 14.1981 19.8745 15.1256C20.3281 15.5561 20.8346 15.8888 21.3982 16.1251C21.276 16.4795 21.147 16.819 21.0098 17.1449ZM16.7648 0.440369C16.7648 1.54062 16.3628 2.56792 15.5616 3.51878C14.5947 4.64917 13.4252 5.30236 12.157 5.19929C12.1408 5.06729 12.1315 4.92837 12.1315 4.78239C12.1315 3.72615 12.5913 2.59576 13.4078 1.67152C13.8155 1.20356 14.334 0.814453 14.9627 0.504058C15.5901 0.198295 16.1835 0.0292007 16.7417 0.000244141C16.758 0.147331 16.7648 0.294426 16.7648 0.440355V0.440369Z" fill="black"/>
</g>
</svg>
