<svg width="25" height="24" viewBox="0 0 25 24" fill="none" xmlns="http://www.w3.org/2000/svg">
<g id="Social icon" clip-path="url(#clip0_611_1958)">
<path id="Vector" d="M24.5993 12.2765C24.5993 11.4608 24.5331 10.6406 24.392 9.83813H13.0732V14.4591H19.555C19.286 15.9495 18.4218 17.2679 17.1563 18.1056V21.104H21.0233C23.2941 19.014 24.5993 15.9274 24.5993 12.2765Z" fill="#4285F4"/>
<path id="Vector_2" d="M13.0736 24.0008C16.31 24.0008 19.0394 22.9382 21.028 21.1039L17.161 18.1055C16.0852 18.8375 14.6962 19.252 13.078 19.252C9.94738 19.252 7.29296 17.1399 6.34054 14.3003H2.3501V17.3912C4.38721 21.4434 8.53639 24.0008 13.0736 24.0008Z" fill="#34A853"/>
<path id="Vector_3" d="M6.33578 14.3002C5.83312 12.8099 5.83312 11.196 6.33578 9.70569V6.61475H2.34974C0.647742 10.0055 0.647742 14.0004 2.34974 17.3912L6.33578 14.3002Z" fill="#FBBC04"/>
<path id="Vector_4" d="M13.0736 4.74966C14.7844 4.7232 16.4379 5.36697 17.6769 6.54867L21.103 3.12262C18.9336 1.0855 16.0543 -0.034466 13.0736 0.000808666C8.53639 0.000808666 4.38721 2.55822 2.3501 6.61481L6.33613 9.70575C7.28414 6.86173 9.94297 4.74966 13.0736 4.74966Z" fill="#EA4335"/>
</g>
<defs>
<clipPath id="clip0_611_1958">
<rect width="24" height="24" fill="white" transform="translate(0.833496)"/>
</clipPath>
</defs>
</svg>
